:SAMPLES-PER-SECOND 24
:FULLY-SPECIFIED
:DEGREES
100
root  -2.21563 38.9486 33.1963 -169.942 3.52977 -155.591
RightUpLeg  -51.4952 11.4858 1.45835
RightLeg  52.5465 4.71267 6.62707
RightFoot  -13.39 0.13569 12.0159
RightToes  -2.08645e-008 3.77894e-005 6.81332e-007
Spine  28.1649 0.487277 -16.0478
Spine1  1.62172 -9.88041 32.2944
HEad  -39.0241 -43.6312 29.2236
LeftShoulder1  6.96924 -13.4644 -35.0443
LeftArm  23.41 -30.0196 -47.3337
LeftForeArm  60.4243 -77.6429 -51.0495
LeftHand  -1.06185 -2.97248 14.9297
RightShoulder  4.06781 6.79376 33.6165
RightArm  14.43 -13.1181 29.7596
RightForeArm  119.354 80.2286 105.171
RightHand  -0.795609 8.56145 -6.96487
LeftUpLeg  -20.396 -2.22369 22.381
LeftLeg  34.2017 7.00512 5.4478
LeftFoot  -21.9521 0.0196953 -1.1869
LeftToes  1.24767e-006 1.47042e-008 1.32732e-009
101
root  -3.77424 39.4959 33.6298 -164.255 10.4018 -149.869
RightUpLeg  -60.3558 8.41728 -0.406937
RightLeg  75.4722 2.63543 10.7735
RightFoot  -16.6478 0.408616 11.2264
RightToes  -2.08645e-008 3.77894e-005 6.81332e-007
Spine  29.8004 -0.223641 -12.8343
Spine1  0.603508 -10.4948 35.1537
HEad  -39.8287 -43.7631 30.0506
LeftShoulder1  6.6836 -13.3207 -33.7175
LeftArm  27.6805 -37.6881 -54.8364
LeftForeArm  63.4226 -78.0002 -52.8246
LeftHand  -1.03409 -2.96792 14.5479
RightShoulder  3.75957 6.54742 31.51
RightArm  19.7049 -9.98872 27.7542
RightForeArm  143.515 78.4208 126.794
RightHand  -0.793196 9.08326 -6.73258
LeftUpLeg  -20.9492 3.53477 25.0569
LeftLeg  30.5444 9.90699 6.60988
LeftFoot  -18.9931 0.11558 0.034207
LeftToes  1.24767e-006 1.47042e-008 1.32732e-009
102
root  -5.38655 40.1535 33.3609 -158.471 16.342 -144.235
RightUpLeg  -63.9116 3.5234 -7.57438
RightLeg  93.1753 -0.352386 7.31451
RightFoot  -19.6614 0.432661 7.7734
RightToes  -2.08645e-008 3.77894e-005 6.81332e-007
Spine  29.9433 -1.71723 -8.33935
Spine1  -0.049833 -10.9086 36.2076
HEad  -39.7097 -44.1133 29.2517
LeftShoulder1  6.15866 -13.019 -31.2633
LeftArm  31.2878 -43.2095 -60.0508
LeftForeArm  71.7213 -78.9358 -58.9651
LeftHand  -1.00385 -3.72027 13.0204
RightShoulder  3.4587 6.32871 29.248
RightArm  23.9011 -6.62049 26.2327
RightForeArm  157.161 75.851 139.71
RightHand  -0.822758 8.62434 -7.17423
LeftUpLeg  -18.8948 8.58714 26.834
LeftLeg  24.4784 12.9803 6.69666
LeftFoot  -15.7171 0.117404 0.606136
LeftToes  1.24767e-006 1.47042e-008 1.32732e-009
103
root  -6.66301 40.7753 32.4625 -150.947 23.9041 -138.267
RightUpLeg  -63.6234 1.12864 -21.9503
RightLeg  103.657 -1.15928 5.27825
RightFoot  -20.7779 0.269127 4.95624
RightToes  -2.08645e-008 3.77894e-005 6.81332e-007
Spine  27.77 -2.69496 -3.23255
Spine1  -1.75073 -9.53891 34.5949
HEad  -37.5957 -46.0405 26.7048
LeftShoulder1  5.50994 -12.4704 -28.4351
LeftArm  30.6164 -43.87 -59.3197
LeftForeArm  90.9656 -80.3129 -74.4086
LeftHand  -0.901927 -4.76206 10.5807
RightShoulder  3.24048 6.17522 27.4995
RightArm  27.5915 -4.68973 25.1519
RightForeArm  162.193 73.9563 145.4
RightHand  -0.558676 8.82503 -4.93796
LeftUpLeg  -14.9433 13.9414 27.3401
LeftLeg  16.6298 18.6432 6.52918
LeftFoot  -12.0122 0.0782566 1.41846
LeftToes  1.24767e-006 1.47042e-008 1.32732e-009
104
root  -7.39772 41.3739 31.2648 -141.489 31.3766 -130.452
RightUpLeg  -59.9606 1.27507 -37.1198
RightLeg  107.09 -0.665917 3.06526
RightFoot  -20.9543 -0.0301473 1.37236
RightToes  -2.08645e-008 3.77894e-005 6.81332e-007
Spine  24.1039 -2.73471 1.8356
Spine1  -3.11197 -7.70945 33.2988
HEad  -35.2101 -49.7314 24.5862
LeftShoulder1  4.94576 -11.8018 -26.1875
LeftArm  26.4643 -37.7946 -52.7981
LeftForeArm  125.444 -80.3504 -106.721
LeftHand  -0.707018 -4.59001 8.49497
RightShoulder  2.99909 5.91591 25.7957
RightArm  31.8052 -1.88495 24.9531
RightForeArm  164.694 72.8963 147.945
RightHand  -0.295662 9.30631 -2.72231
LeftUpLeg  -10.2202 19.4508 28.4962
LeftLeg  8.7188 24.3132 4.79722
LeftFoot  -7.52801 -0.033694 2.20785
LeftToes  1.24767e-006 1.47042e-008 1.32732e-009
